<svg width="18" height="18" viewBox="0 0 18 18" fill="none" xmlns="http://www.w3.org/2000/svg">
<path fill-rule="evenodd" clip-rule="evenodd" d="M9.00004 8.29293L2.35359 1.64648L1.64648 2.35359L8.29293 9.00004L1.64648 15.6465L2.35359 16.3536L9.00004 9.70715L15.6465 16.3536L16.3536 15.6465L9.70715 9.00004L16.3536 2.35359L15.6465 1.64648L9.00004 8.29293Z" fill="white"/>
<path d="M2.35359 1.64648L2.70715 1.29293L2.35359 0.939378L2.00004 1.29293L2.35359 1.64648ZM9.00004 8.29293L8.64648 8.64648L9.00004 9.00004L9.35359 8.64648L9.00004 8.29293ZM1.64648 2.35359L1.29293 2.00004L0.939377 2.35359L1.29293 2.70714L1.64648 2.35359ZM8.29293 9.00004L8.64648 9.35359L9.00004 9.00004L8.64648 8.64648L8.29293 9.00004ZM1.64648 15.6465L1.29293 15.2929L0.939378 15.6465L1.29293 16L1.64648 15.6465ZM2.35359 16.3536L2.00004 16.7071L2.35359 17.0607L2.70714 16.7071L2.35359 16.3536ZM9.00004 9.70715L9.35359 9.35359L9.00004 9.00004L8.64648 9.35359L9.00004 9.70715ZM15.6465 16.3536L15.2929 16.7071L15.6465 17.0607L16 16.7071L15.6465 16.3536ZM16.3536 15.6465L16.7071 16L17.0607 15.6465L16.7071 15.2929L16.3536 15.6465ZM9.70715 9.00004L9.35359 8.64648L9.00004 9.00004L9.35359 9.35359L9.70715 9.00004ZM16.3536 2.35359L16.7071 2.70714L17.0607 2.35359L16.7071 2.00004L16.3536 2.35359ZM15.6465 1.64648L16 1.29293L15.6465 0.939378L15.2929 1.29293L15.6465 1.64648ZM2.00004 2.00004L8.64648 8.64648L9.35359 7.93938L2.70715 1.29293L2.00004 2.00004ZM2.00004 2.70714L2.70715 2.00004L2.00004 1.29293L1.29293 2.00004L2.00004 2.70714ZM8.64648 8.64648L2.00004 2.00004L1.29293 2.70714L7.93938 9.35359L8.64648 8.64648ZM2.00004 16L8.64648 9.35359L7.93938 8.64648L1.29293 15.2929L2.00004 16ZM2.70715 16L2.00004 15.2929L1.29293 16L2.00004 16.7071L2.70715 16ZM8.64648 9.35359L2.00004 16L2.70714 16.7071L9.35359 10.0607L8.64648 9.35359ZM16 16L9.35359 9.35359L8.64648 10.0607L15.2929 16.7071L16 16ZM16 15.2929L15.2929 16L16 16.7071L16.7071 16L16 15.2929ZM9.35359 9.35359L16 16L16.7071 15.2929L10.0607 8.64648L9.35359 9.35359ZM16 2.00004L9.35359 8.64648L10.0607 9.35359L16.7071 2.70714L16 2.00004ZM15.2929 2.00004L16 2.70715L16.7071 2.00004L16 1.29293L15.2929 2.00004ZM9.35359 8.64648L16 2.00004L15.2929 1.29293L8.64648 7.93938L9.35359 8.64648Z" fill="white"/>
</svg>
